<svg width="28" height="28" viewBox="0 0 28 28" fill="none" xmlns="http://www.w3.org/2000/svg">
<g clip-path="url(#clip0_8_643)">
<path d="M20.8922 0H6.91532C3.50977 0 0.749023 2.93813 0.749023 6.5625V21.4375C0.749023 25.0619 3.50977 28 6.91532 28H20.8922C24.2978 28 27.0585 25.0619 27.0585 21.4375V6.5625C27.0585 2.93813 24.2978 0 20.8922 0Z" fill="url(#paint0_radial_8_643)"/>
<path d="M20.8922 0H6.91532C3.50977 0 0.749023 2.93813 0.749023 6.5625V21.4375C0.749023 25.0619 3.50977 28 6.91532 28H20.8922C24.2978 28 27.0585 25.0619 27.0585 21.4375V6.5625C27.0585 2.93813 24.2978 0 20.8922 0Z" fill="url(#paint1_radial_8_643)"/>
<path d="M13.905 3.0625C11.114 3.0625 10.7636 3.07552 9.66745 3.12856C8.57335 3.18194 7.82651 3.36623 7.17309 3.63672C6.49705 3.91606 5.92369 4.2898 5.35249 4.89792C4.78077 5.50594 4.4296 6.11614 4.1663 6.83528C3.91142 7.53091 3.73805 8.32606 3.68882 9.48992C3.6398 10.6566 3.62695 11.0296 3.62695 14.0001C3.62695 16.9706 3.63929 17.3423 3.68903 18.5089C3.73939 19.6733 3.91256 20.4681 4.1665 21.1635C4.42919 21.883 4.78036 22.4932 5.35177 23.1011C5.92287 23.7095 6.49623 24.0842 7.17175 24.3635C7.82569 24.634 8.57263 24.8183 9.66653 24.8717C10.7628 24.9247 11.1128 24.9377 13.9038 24.9377C16.6952 24.9377 17.0444 24.9247 18.1406 24.8717C19.2347 24.8183 19.9823 24.634 20.6363 24.3635C21.312 24.0842 21.8845 23.7095 22.4555 23.1011C23.0272 22.4932 23.3783 21.883 23.6417 21.1638C23.8943 20.4681 24.0678 19.6731 24.1192 18.5091C24.1684 17.3425 24.1813 16.9706 24.1813 14.0001C24.1813 11.0296 24.1684 10.6568 24.1192 9.49014C24.0678 8.32573 23.8943 7.53102 23.6417 6.83561C23.3783 6.11614 23.0272 5.50594 22.4555 4.89792C21.8839 4.28958 21.3122 3.91584 20.6356 3.63683C19.9805 3.36623 19.2332 3.18183 18.1391 3.12856C17.0429 3.07552 16.6938 3.0625 13.9018 3.0625H13.905ZM12.9831 5.03355C13.2568 5.03311 13.5621 5.03355 13.905 5.03355C16.6491 5.03355 16.9743 5.04405 18.0579 5.09644C19.06 5.14522 19.6038 5.32339 19.9661 5.47312C20.4457 5.67131 20.7876 5.90833 21.1471 6.29125C21.5068 6.67406 21.7294 7.03861 21.9162 7.54906C22.0569 7.93406 22.2245 8.51287 22.2701 9.57928C22.3194 10.7323 22.33 11.0786 22.33 13.9976C22.33 16.9166 22.3194 17.263 22.2701 18.4159C22.2243 19.4823 22.0569 20.0611 21.9162 20.4462C21.73 20.9567 21.5068 21.3201 21.1471 21.7027C20.7874 22.0855 20.4459 22.3225 19.9661 22.5208C19.6042 22.6711 19.06 22.8489 18.0579 22.8977C16.9745 22.95 16.6491 22.9614 13.905 22.9614C11.1608 22.9614 10.8356 22.95 9.75224 22.8977C8.75022 22.8484 8.20635 22.6703 7.84377 22.5205C7.36424 22.3222 7.0216 22.0853 6.6619 21.7025C6.3022 21.3197 6.0796 20.956 5.89286 20.4454C5.75217 20.0602 5.58455 19.4814 5.53892 18.415C5.48969 17.262 5.47982 16.9157 5.47982 13.9949C5.47982 11.074 5.48969 10.7296 5.53892 9.57655C5.58475 8.51014 5.75217 7.93133 5.89286 7.54578C6.07919 7.03533 6.3022 6.67078 6.662 6.28797C7.02181 5.90516 7.36424 5.66814 7.84387 5.46952C8.20614 5.31912 8.75022 5.14139 9.75224 5.09239C10.7003 5.04678 11.0677 5.03311 12.9831 5.03081V5.03355ZM19.391 6.84961C18.7101 6.84961 18.1577 7.43695 18.1577 8.16167C18.1577 8.88628 18.7101 9.47417 19.391 9.47417C20.0718 9.47417 20.6242 8.88628 20.6242 8.16167C20.6242 7.43706 20.0718 6.84917 19.391 6.84917V6.84961ZM13.905 8.38316C10.9904 8.38316 8.6273 10.8981 8.6273 14.0001C8.6273 17.1021 10.9904 19.6159 13.905 19.6159C16.8197 19.6159 19.182 17.1021 19.182 14.0001C19.182 10.8982 16.8195 8.38316 13.9048 8.38316H13.905ZM13.905 10.3542C15.797 10.3542 17.3308 11.9864 17.3308 14.0001C17.3308 16.0136 15.797 17.646 13.905 17.646C12.0131 17.646 10.4793 16.0136 10.4793 14.0001C10.4793 11.9864 12.013 10.3542 13.905 10.3542Z" fill="white"/>
</g>
<defs>
<radialGradient id="paint0_radial_8_643" cx="0" cy="0" r="1" gradientUnits="userSpaceOnUse" gradientTransform="translate(7.73749 30.1565) rotate(-90) scale(27.7501 24.2515)">
<stop stop-color="#FFDD55"/>
<stop offset="0.1" stop-color="#FFDD55"/>
<stop offset="0.5" stop-color="#FF543E"/>
<stop offset="1" stop-color="#C837AB"/>
</radialGradient>
<radialGradient id="paint1_radial_8_643" cx="0" cy="0" r="1" gradientUnits="userSpaceOnUse" gradientTransform="translate(-3.65792 2.01698) rotate(79.3483) scale(12.3764 48.1532)">
<stop stop-color="#3771C8"/>
<stop offset="0.128" stop-color="#3771C8"/>
<stop offset="1" stop-color="#6600FF" stop-opacity="0"/>
</radialGradient>
<clipPath id="clip0_8_643">
<rect width="26.3095" height="28" fill="white" transform="translate(0.75)"/>
</clipPath>
</defs>
</svg>
