<svg width="30" height="28" viewBox="0 0 30 28" fill="none" xmlns="http://www.w3.org/2000/svg">
<g clip-path="url(#clip0_8_634)">
<path d="M29.06 14C29.06 6.26806 22.7225 0 14.905 0C7.08746 0 0.75 6.26806 0.75 14C0.75 20.9878 5.92631 26.7797 12.6933 27.8299V18.0469H9.09924V14H12.6933V10.9156C12.6933 7.40688 14.8066 5.46875 18.0399 5.46875C19.5885 5.46875 21.2084 5.74219 21.2084 5.74219V9.1875H19.4235C17.6651 9.1875 17.1167 10.2667 17.1167 11.3739V14H21.0425L20.4149 18.0469H17.1167V27.8299C23.8837 26.7797 29.06 20.9879 29.06 14Z" fill="#1877F2"/>
<path d="M20.4143 18.0469L21.0419 14H17.1161V11.3739C17.1161 10.2666 17.6645 9.1875 19.4229 9.1875H21.2078V5.74219C21.2078 5.74219 19.5879 5.46875 18.0392 5.46875C14.806 5.46875 12.6927 7.40688 12.6927 10.9156V14H9.09863V18.0469H12.6927V27.8299C13.4243 27.9433 14.1638 28.0002 14.9044 28C15.645 28.0002 16.3845 27.9433 17.1161 27.8299V18.0469H20.4143Z" fill="white"/>
</g>
<defs>
<clipPath id="clip0_8_634">
<rect width="28.31" height="28" fill="white" transform="translate(0.75)"/>
</clipPath>
</defs>
</svg>
