<svg width="33" height="28" viewBox="0 0 33 28" fill="none" xmlns="http://www.w3.org/2000/svg">
<g clip-path="url(#clip0_8_639)">
<path d="M32.976 3.4098C31.7693 3.97882 30.4893 4.35227 29.1786 4.51774C30.5438 3.64693 31.5921 2.26796 32.0856 0.624935C30.7878 1.44451 29.368 2.02198 27.8873 2.3324C26.6812 0.964954 24.9631 0.110352 23.0614 0.110352C19.41 0.110352 16.4496 3.26082 16.4496 7.14652C16.4496 7.69808 16.5081 8.23504 16.6208 8.75016C11.126 8.45663 6.25435 5.65542 2.99336 1.39835C2.42437 2.43757 2.09833 3.64639 2.09833 4.93573C2.09833 7.37695 3.26564 9.53054 5.03958 10.7924C3.98965 10.7575 2.96281 10.4557 2.04483 9.91223C2.0445 9.9417 2.04437 9.97122 2.04445 10.0008C2.04445 13.41 4.32344 16.2539 7.3479 16.9003C6.3743 17.1821 5.35307 17.2233 4.36221 17.0209C5.20348 19.8163 7.64523 21.8505 10.5383 21.9075C8.27553 23.7946 5.42466 24.9196 2.32719 24.9196C1.79344 24.9196 1.26725 24.8862 0.75 24.8212C3.6759 26.8177 7.15114 27.9825 10.8848 27.9825C23.046 27.9825 29.696 17.2607 29.696 7.96254C29.696 7.65736 29.6896 7.35391 29.6769 7.05221C30.9712 6.05627 32.0883 4.82285 32.976 3.4098Z" fill="#55ACEE"/>
</g>
<defs>
<clipPath id="clip0_8_639">
<rect width="32.226" height="28" fill="white" transform="translate(0.75)"/>
</clipPath>
</defs>
</svg>
